<svg width="100" height="100" viewBox="0 0 100 100" fill="none" xmlns="http://www.w3.org/2000/svg">
<rect x="14" y="7" width="22" height="87" rx="11" fill="url(#paint0_linear_1_36)"/>
<g filter="url(#filter0_d_1_36)">
<mask id="mask0_1_36" style="mask-type:alpha" maskUnits="userSpaceOnUse" x="14" y="7" width="22" height="87">
<rect x="14" y="7" width="22" height="87" rx="11" fill="url(#paint1_linear_1_36)"/>
</mask>
<g mask="url(#mask0_1_36)">
<path d="M38.1436 37.5C29.4251 23.118 28.6436 19.5 13.6436 19.5L8 2H41L38.1436 37.5Z" fill="url(#paint2_linear_1_36)"/>
</g>
</g>
<rect x="94.2806" y="84.3319" width="22" height="64.4239" rx="11" transform="rotate(139.973 94.2806 84.3319)" fill="url(#paint3_linear_1_36)"/>
<mask id="mask1_1_36" style="mask-type:alpha" maskUnits="userSpaceOnUse" x="40" y="6" width="51" height="88">
<rect x="94.2806" y="84.3319" width="22" height="64.4239" rx="11" transform="rotate(139.973 94.2806 84.3319)" fill="url(#paint4_linear_1_36)"/>
<rect x="78.1662" y="2" width="22" height="64.4239" rx="11" transform="rotate(40.8826 78.1662 2)" fill="url(#paint5_linear_1_36)"/>
</mask>
<g mask="url(#mask1_1_36)">
<g filter="url(#filter1_d_1_36)">
<path d="M75.5 -9L30.5 41L20.5 46.5L58 83.5C55.1145 68.0386 56.2225 60.4852 65.5 50L95 16.5L100 8.5L75.5 -9Z" fill="url(#paint6_linear_1_36)"/>
</g>
</g>
<defs>
<filter id="filter0_d_1_36" x="7" y="4" width="36" height="44.5" filterUnits="userSpaceOnUse" color-interpolation-filters="sRGB">
<feFlood flood-opacity="0" result="BackgroundImageFix"/>
<feColorMatrix in="SourceAlpha" type="matrix" values="0 0 0 0 0 0 0 0 0 0 0 0 0 0 0 0 0 0 127 0" result="hardAlpha"/>
<feOffset dy="4"/>
<feGaussianBlur stdDeviation="3.5"/>
<feComposite in2="hardAlpha" operator="out"/>
<feColorMatrix type="matrix" values="0 0 0 0 0.321569 0 0 0 0 0 0 0 0 0 0.6 0 0 0 1 0"/>
<feBlend mode="normal" in2="BackgroundImageFix" result="effect1_dropShadow_1_36"/>
<feBlend mode="normal" in="SourceGraphic" in2="effect1_dropShadow_1_36" result="shape"/>
</filter>
<filter id="filter1_d_1_36" x="13.5" y="-12" width="93.5" height="106.5" filterUnits="userSpaceOnUse" color-interpolation-filters="sRGB">
<feFlood flood-opacity="0" result="BackgroundImageFix"/>
<feColorMatrix in="SourceAlpha" type="matrix" values="0 0 0 0 0 0 0 0 0 0 0 0 0 0 0 0 0 0 127 0" result="hardAlpha"/>
<feOffset dy="4"/>
<feGaussianBlur stdDeviation="3.5"/>
<feComposite in2="hardAlpha" operator="out"/>
<feColorMatrix type="matrix" values="0 0 0 0 0.321569 0 0 0 0 0 0 0 0 0 0.6 0 0 0 1 0"/>
<feBlend mode="normal" in2="BackgroundImageFix" result="effect1_dropShadow_1_36"/>
<feBlend mode="normal" in="SourceGraphic" in2="effect1_dropShadow_1_36" result="shape"/>
</filter>
<linearGradient id="paint0_linear_1_36" x1="25" y1="7" x2="25" y2="94" gradientUnits="userSpaceOnUse">
<stop stop-color="#930BFA"/>
<stop offset="0.527083" stop-color="#B20FAB"/>
<stop offset="1" stop-color="#E9C43F"/>
</linearGradient>
<linearGradient id="paint1_linear_1_36" x1="25" y1="7" x2="25" y2="94" gradientUnits="userSpaceOnUse">
<stop stop-color="#930BFA"/>
<stop offset="1" stop-color="#E9C43F"/>
</linearGradient>
<linearGradient id="paint2_linear_1_36" x1="24.5" y1="2" x2="24.5" y2="37.5" gradientUnits="userSpaceOnUse">
<stop stop-color="#950AF7"/>
<stop offset="1" stop-color="#A70CDE"/>
</linearGradient>
<linearGradient id="paint3_linear_1_36" x1="105.281" y1="84.3319" x2="105.281" y2="148.756" gradientUnits="userSpaceOnUse">
<stop stop-color="#E7C73B"/>
<stop offset="1" stop-color="#89118B"/>
</linearGradient>
<linearGradient id="paint4_linear_1_36" x1="105.281" y1="84.3319" x2="105.281" y2="148.756" gradientUnits="userSpaceOnUse">
<stop stop-color="#930BFA"/>
<stop offset="1" stop-color="#E9C43F"/>
</linearGradient>
<linearGradient id="paint5_linear_1_36" x1="89.1662" y1="2" x2="89.1662" y2="66.4239" gradientUnits="userSpaceOnUse">
<stop stop-color="#930BFA"/>
<stop offset="1" stop-color="#E9C43F"/>
</linearGradient>
<linearGradient id="paint6_linear_1_36" x1="60.25" y1="-9" x2="60.25" y2="83.5" gradientUnits="userSpaceOnUse">
<stop stop-color="#670DFA"/>
<stop offset="1" stop-color="#CA4495"/>
</linearGradient>
</defs>
</svg>
