{"accessors":[{"bufferView":0,"byteOffset":0,"componentType":5126,"count":28,"max":[0.0031500000000000005,0.004,-0.02135],"min":[-0.0031500000000000005,0.0019999999999999996,-0.024477032953408872],"type":"VEC3"},{"bufferView":0,"byteOffset":336,"componentType":5126,"count":4,"max":[0.0031500000000000005,0.004,-0.0031500000000000005],"min":[0.00315,0.0019999999999999996,-0.02135],"type":"VEC3"},{"bufferView":0,"byteOffset":384,"componentType":5126,"count":112,"max":[0.0031500000000000005,0.002,-0.02135],"min":[-0.0031500000000000005,-4.440892098500626e-19,-0.024477032953408872],"type":"VEC3"},{"bufferView":0,"byteOffset":1728,"componentType":5126,"count":112,"max":[0.0031500000000000005,0.006,-0.02135],"min":[-0.0031500000000000005,0.004,-0.024477032953408872],"type":"VEC3"},{"bufferView":0,"byteOffset":3072,"componentType":5126,"count":4,"max":[-0.0031500000000000005,0.004,-0.0031499999999999987],"min":[-0.0031500000000000005,0.0019999999999999996,-0.02135],"type":"VEC3"},{"bufferView":0,"byteOffset":3120,"componentType":5126,"count":16,"max":[0.0031500000000000005,0.002,-0.0031500000000000005],"min":[0.0011500000000000004,-4.440892098500626e-19,-0.02135],"type":"VEC3"},{"bufferView":0,"byteOffset":3312,"componentType":5126,"count":16,"max":[0.0031500000000000005,0.006,-0.0031500000000000005],"min":[0.0011500000000000004,0.004,-0.02135],"type":"VEC3"},{"bufferView":0,"byteOffset":3504,"componentType":5126,"count":28,"max":[0.00315,0.004,-0.000022967046591130468],"min":[-0.0031500000000000005,0.0019999999999999996,-0.0031500000000000005],"type":"VEC3"},{"bufferView":0,"byteOffset":3840,"componentType":5126,"count":28,"max":[0.0011500000000000004,0.0,-0.0020083847947872384],"min":[-0.0011500000000000004,-4.440892098500626e-19,-0.022491615205212763],"type":"VEC3"},{"bufferView":0,"byteOffset":4176,"componentType":5126,"count":16,"max":[-0.0011500000000000004,0.0019999999999999996,-0.0031499999999999987],"min":[-0.0031500000000000005,-4.440892098500626e-19,-0.02135],"type":"VEC3"},{"bufferView":0,"byteOffset":4368,"componentType":5126,"count":28,"max":[0.0011500000000000004,0.006,-0.0020083847947872384],"min":[-0.0011500000000000004,0.006,-0.022491615205212763],"type":"VEC3"},{"bufferView":0,"byteOffset":4704,"componentType":5126,"count":16,"max":[-0.0011500000000000004,0.006,-0.0031499999999999987],"min":[-0.0031500000000000005,0.004,-0.02135],"type":"VEC3"},{"bufferView":0,"byteOffset":4896,"componentType":5126,"count":112,"max":[0.00315,0.002,-0.000022967046591130468],"min":[-0.0031500000000000005,-4.440892098500626e-19,-0.0031500000000000005],"type":"VEC3"},{"bufferView":0,"byteOffset":6240,"componentType":5126,"count":112,"max":[0.00315,0.006,-0.000022967046591130468],"min":[-0.0031500000000000005,0.004,-0.0031500000000000005],"type":"VEC3"},{"bufferView":0,"byteOffset":7584,"componentType":5126,"count":4,"max":[0.012828454533595554,0.004,-0.01428854696331592],"min":[0.00513175587390858,0.0019999999999999996,-0.0231425859413201],"type":"VEC3"},{"bufferView":0,"byteOffset":7632,"componentType":5126,"count":14,"max":[0.00513175587390858,0.004,-0.009863453036684082],"min":[0.004304518461684131,0.0019999999999999996,-0.01428854696331592],"type":"VEC3"},{"bufferView":0,"byteOffset":7800,"componentType":5126,"count":16,"max":[0.014337873694041096,0.002,-0.012976428905334906],"min":[0.00513175587390858,-4.440892098500626e-19,-0.0231425859413201],"type":"VEC3"},{"bufferView":0,"byteOffset":7992,"componentType":5126,"count":16,"max":[0.014337873694041096,0.006,-0.012976428905334906],"min":[0.00513175587390858,0.004,-0.0231425859413201],"type":"VEC3"},{"bufferView":0,"byteOffset":8184,"componentType":5126,"count":28,"max":[0.01835565060670353,0.004,-0.019009414058679903],"min":[0.012828454533595554,0.0019999999999999996,-0.024206463114424124],"type":"VEC3"},{"bufferView":0,"byteOffset":8520,"componentType":5126,"count":56,"max":[0.0066411750343541255,0.002,-0.009863453036684082],"min":[0.004304518461684131,-4.440892098500626e-19,-0.01428854696331592],"type":"VEC3"},{"bufferView":0,"byteOffset":9192,"componentType":5126,"count":56,"max":[0.0066411750343541255,0.006,-0.009863453036684082],"min":[0.004304518461684131,0.004,-0.01428854696331592],"type":"VEC3"},{"bufferView":0,"byteOffset":9864,"componentType":5126,"count":4,"max":[0.012828454533595551,0.004,-0.0010094140586799033],"min":[0.0051317558739085774,0.0019999999999999996,-0.009863453036684082],"type":"VEC3"},{"bufferView":0,"byteOffset":9912,"componentType":5126,"count":42,"max":[0.016355738927080515,0.0,-0.0019331325137816702],"min":[0.006304518461684131,-4.440892098500626e-19,-0.022218867486218333],"type":"VEC3"},{"bufferView":0,"byteOffset":10416,"componentType":5126,"count":100,"max":[0.01835565060670353,0.002,-0.019009414058679903],"min":[0.012828454533595554,-4.440892098500626e-19,-0.024206463114424124],"type":"VEC3"},{"bufferView":0,"byteOffset":11616,"componentType":5126,"count":42,"max":[0.016355738927080515,0.006,-0.0019331325137816702],"min":[0.006304518461684131,0.006,-0.022218867486218333],"type":"VEC3"},{"bufferView":0,"byteOffset":12120,"componentType":5126,"count":100,"max":[0.01835565060670353,0.006,-0.019009414058679903],"min":[0.012828454533595554,0.004,-0.024206463114424124],"type":"VEC3"},{"bufferView":0,"byteOffset":13320,"componentType":5126,"count":4,"max":[0.017583124888999015,0.004000000000000002,-0.013388118057981017],"min":[0.012696606826252078,0.0019999999999999996,-0.019009414058679903],"type":"VEC3"},{"bufferView":0,"byteOffset":13368,"componentType":5126,"count":16,"max":[0.014337873694041095,0.002,-0.0010094140586799033],"min":[0.0051317558739085774,-4.440892098500626e-19,-0.011175571094665096],"type":"VEC3"},{"bufferView":0,"byteOffset":13560,"componentType":5126,"count":16,"max":[0.014337873694041095,0.006,-0.0010094140586799033],"min":[0.0051317558739085774,0.004,-0.011175571094665096],"type":"VEC3"},{"bufferView":0,"byteOffset":13752,"componentType":5126,"count":28,"max":[0.018355650606703525,0.004,0.00005446311442412189],"min":[0.012828454533595551,0.0019999999999999996,-0.0051425859413201],"type":"VEC3"},{"bufferView":0,"byteOffset":14088,"componentType":5126,"count":16,"max":[0.017583124888999015,0.0019999999999999996,-0.003830467883339086],"min":[0.011187187665806534,-4.440892098500626e-19,-0.010763881942018987],"type":"VEC3"},{"bufferView":0,"byteOffset":14280,"componentType":5126,"count":56,"max":[0.012696606826252078,0.002,-0.009451763884037973],"min":[0.010206025986697622,0.0,-0.014700236115962028],"type":"VEC3"},{"bufferView":0,"byteOffset":14952,"componentType":5126,"count":100,"max":[0.018355650606703525,0.002,0.00005446311442412189],"min":[0.012828454533595551,-4.440892098500626e-19,-0.0051425859413201],"type":"VEC3"},{"bufferView":0,"byteOffset":16152,"componentType":5126,"count":16,"max":[0.017583124888999015,0.002,-0.013388118057981017],"min":[0.011187187665806534,0.0,-0.020321532116660917],"type":"VEC3"},{"bufferView":0,"byteOffset":16344,"componentType":5126,"count":16,"max":[0.017583124888999015,0.006,-0.003830467883339086],"min":[0.011187187665806534,0.004,-0.010763881942018987],"type":"VEC3"},{"bufferView":0,"byteOffset":16536,"componentType":5126,"count":56,"max":[0.012696606826252078,0.006,-0.009451763884037973],"min":[0.010206025986697622,0.004,-0.014700236115962028],"type":"VEC3"},{"bufferView":0,"byteOffset":17208,"componentType":5126,"count":100,"max":[0.018355650606703525,0.006,0.00005446311442412189],"min":[0.012828454533595551,0.004,-0.0051425859413201],"type":"VEC3"},{"bufferView":0,"byteOffset":18408,"componentType":5126,"count":16,"max":[0.017583124888999015,0.006,-0.013388118057981017],"min":[0.011187187665806534,0.004,-0.020321532116660917],"type":"VEC3"},{"bufferView":0,"byteOffset":18600,"componentType":5126,"count":14,"max":[0.012696606826252078,0.004000000000000002,-0.010763881942018987],"min":[0.012206025986697622,0.0019999999999999996,-0.013388118057981017],"type":"VEC3"},{"bufferView":0,"byteOffset":18768,"componentType":5126,"count":4,"max":[0.017583124888999015,0.004,-0.0051425859413201],"min":[0.012696606826252078,0.0019999999999999996,-0.010763881942018987],"type":"VEC3"},{"bufferView":1,"byteOffset":0,"componentType":5126,"count":28,"type":"VEC3"},{"bufferView":1,"byteOffset":336,"componentType":5126,"count":4,"type":"VEC3"},{"bufferView":1,"byteOffset":384,"componentType":5126,"count":112,"type":"VEC3"},{"bufferView":1,"byteOffset":1728,"componentType":5126,"count":112,"type":"VEC3"},{"bufferView":1,"byteOffset":3072,"componentType":5126,"count":4,"type":"VEC3"},{"bufferView":1,"byteOffset":3120,"componentType":5126,"count":16,"type":"VEC3"},{"bufferView":1,"byteOffset":3312,"componentType":5126,"count":16,"type":"VEC3"},{"bufferView":1,"byteOffset":3504,"componentType":5126,"count":28,"type":"VEC3"},{"bufferView":1,"byteOffset":3840,"componentType":5126,"count":28,"type":"VEC3"},{"bufferView":1,"byteOffset":4176,"componentType":5126,"count":16,"type":"VEC3"},{"bufferView":1,"byteOffset":4368,"componentType":5126,"count":28,"type":"VEC3"},{"bufferView":1,"byteOffset":4704,"componentType":5126,"count":16,"type":"VEC3"},{"bufferView":1,"byteOffset":4896,"componentType":5126,"count":112,"type":"VEC3"},{"bufferView":1,"byteOffset":6240,"componentType":5126,"count":112,"type":"VEC3"},{"bufferView":1,"byteOffset":7584,"componentType":5126,"count":4,"type":"VEC3"},{"bufferView":1,"byteOffset":7632,"componentType":5126,"count":14,"type":"VEC3"},{"bufferView":1,"byteOffset":7800,"componentType":5126,"count":16,"type":"VEC3"},{"bufferView":1,"byteOffset":7992,"componentType":5126,"count":16,"type":"VEC3"},{"bufferView":1,"byteOffset":8184,"componentType":5126,"count":28,"type":"VEC3"},{"bufferView":1,"byteOffset":8520,"componentType":5126,"count":56,"type":"VEC3"},{"bufferView":1,"byteOffset":9192,"componentType":5126,"count":56,"type":"VEC3"},{"bufferView":1,"byteOffset":9864,"componentType":5126,"count":4,"type":"VEC3"},{"bufferView":1,"byteOffset":9912,"componentType":5126,"count":42,"type":"VEC3"},{"bufferView":1,"byteOffset":10416,"componentType":5126,"count":100,"type":"VEC3"},{"bufferView":1,"byteOffset":11616,"componentType":5126,"count":42,"type":"VEC3"},{"bufferView":1,"byteOffset":12120,"componentType":5126,"count":100,"type":"VEC3"},{"bufferView":1,"byteOffset":13320,"componentType":5126,"count":4,"type":"VEC3"},{"bufferView":1,"byteOffset":13368,"componentType":5126,"count":16,"type":"VEC3"},{"bufferView":1,"byteOffset":13560,"componentType":5126,"count":16,"type":"VEC3"},{"bufferView":1,"byteOffset":13752,"componentType":5126,"count":28,"type":"VEC3"},{"bufferView":1,"byteOffset":14088,"componentType":5126,"count":16,"type":"VEC3"},{"bufferView":1,"byteOffset":14280,"componentType":5126,"count":56,"type":"VEC3"},{"bufferView":1,"byteOffset":14952,"componentType":5126,"count":100,"type":"VEC3"},{"bufferView":1,"byteOffset":16152,"componentType":5126,"count":16,"type":"VEC3"},{"bufferView":1,"byteOffset":16344,"componentType":5126,"count":16,"type":"VEC3"},{"bufferView":1,"byteOffset":16536,"componentType":5126,"count":56,"type":"VEC3"},{"bufferView":1,"byteOffset":17208,"componentType":5126,"count":100,"type":"VEC3"},{"bufferView":1,"byteOffset":18408,"componentType":5126,"count":16,"type":"VEC3"},{"bufferView":1,"byteOffset":18600,"componentType":5126,"count":14,"type":"VEC3"},{"bufferView":1,"byteOffset":18768,"componentType":5126,"count":4,"type":"VEC3"},{"bufferView":2,"byteOffset":0,"componentType":5123,"count":78,"type":"SCALAR"},{"bufferView":2,"byteOffset":156,"componentType":5123,"count":6,"type":"SCALAR"},{"bufferView":2,"byteOffset":168,"componentType":5123,"count":546,"type":"SCALAR"},{"bufferView":2,"byteOffset":1260,"componentType":5123,"count":546,"type":"SCALAR"},{"bufferView":2,"byteOffset":2352,"componentType":5123,"count":6,"type":"SCALAR"},{"bufferView":2,"byteOffset":2364,"componentType":5123,"count":42,"type":"SCALAR"},{"bufferView":2,"byteOffset":2448,"componentType":5123,"count":42,"type":"SCALAR"},{"bufferView":2,"byteOffset":2532,"componentType":5123,"count":78,"type":"SCALAR"},{"bufferView":2,"byteOffset":2688,"componentType":5123,"count":78,"type":"SCALAR"},{"bufferView":2,"byteOffset":2844,"componentType":5123,"count":42,"type":"SCALAR"},{"bufferView":2,"byteOffset":2928,"componentType":5123,"count":78,"type":"SCALAR"},{"bufferView":2,"byteOffset":3084,"componentType":5123,"count":42,"type":"SCALAR"},{"bufferView":2,"byteOffset":3168,"componentType":5123,"count":546,"type":"SCALAR"},{"bufferView":2,"byteOffset":4260,"componentType":5123,"count":546,"type":"SCALAR"},{"bufferView":2,"byteOffset":5352,"componentType":5123,"count":6,"type":"SCALAR"},{"bufferView":2,"byteOffset":5364,"componentType":5123,"count":36,"type":"SCALAR"},{"bufferView":2,"byteOffset":5436,"componentType":5123,"count":42,"type":"SCALAR"},{"bufferView":2,"byteOffset":5520,"componentType":5123,"count":42,"type":"SCALAR"},{"bufferView":2,"byteOffset":5604,"componentType":5123,"count":78,"type":"SCALAR"},{"bufferView":2,"byteOffset":5760,"componentType":5123,"count":252,"type":"SCALAR"},{"bufferView":2,"byteOffset":6264,"componentType":5123,"count":252,"type":"SCALAR"},{"bufferView":2,"byteOffset":6768,"componentType":5123,"count":6,"type":"SCALAR"},{"bufferView":2,"byteOffset":6780,"componentType":5123,"count":120,"type":"SCALAR"},{"bufferView":2,"byteOffset":7020,"componentType":5123,"count":474,"type":"SCALAR"},{"bufferView":2,"byteOffset":7968,"componentType":5123,"count":120,"type":"SCALAR"},{"bufferView":2,"byteOffset":8208,"componentType":5123,"count":474,"type":"SCALAR"},{"bufferView":2,"byteOffset":9156,"componentType":5123,"count":6,"type":"SCALAR"},{"bufferView":2,"byteOffset":9168,"componentType":5123,"count":42,"type":"SCALAR"},{"bufferView":2,"byteOffset":9252,"componentType":5123,"count":42,"type":"SCALAR"},{"bufferView":2,"byteOffset":9336,"componentType":5123,"count":78,"type":"SCALAR"},{"bufferView":2,"byteOffset":9492,"componentType":5123,"count":42,"type":"SCALAR"},{"bufferView":2,"byteOffset":9576,"componentType":5123,"count":252,"type":"SCALAR"},{"bufferView":2,"byteOffset":10080,"componentType":5123,"count":474,"type":"SCALAR"},{"bufferView":2,"byteOffset":11028,"componentType":5123,"count":42,"type":"SCALAR"},{"bufferView":2,"byteOffset":11112,"componentType":5123,"count":42,"type":"SCALAR"},{"bufferView":2,"byteOffset":11196,"componentType":5123,"count":252,"type":"SCALAR"},{"bufferView":2,"byteOffset":11700,"componentType":5123,"count":474,"type":"SCALAR"},{"bufferView":2,"byteOffset":12648,"componentType":5123,"count":42,"type":"SCALAR"},{"bufferView":2,"byteOffset":12732,"componentType":5123,"count":36,"type":"SCALAR"},{"bufferView":2,"byteOffset":12804,"componentType":5123,"count":6,"type":"SCALAR"}],"asset":{"generator":"Open CASCADE Technology 7.6 [dev.opencascade.org]","version":"2.0"},"bufferViews":[{"buffer":0,"byteLength":18816,"byteOffset":0,"byteStride":12,"target":34962},{"buffer":0,"byteLength":18816,"byteOffset":18816,"byteStride":12,"target":34962},{"buffer":0,"byteLength":12816,"byteOffset":37632,"target":34963}],"buffers":[{"byteLength":50448,"uri":"Kayord.bin"}],"materials":[{"name":"mat_0","pbrMetallicRoughness":{"baseColorFactor":[0.168269544839859,0.19120186567306519,0.21586069464683533,1.0]},"doubleSided":true}],"meshes":[{"name":"L","primitives":[{"attributes":{"NORMAL":40,"POSITION":0},"indices":80,"material":0,"mode":4},{"attributes":{"NORMAL":41,"POSITION":1},"indices":81,"material":0,"mode":4},{"attributes":{"NORMAL":42,"POSITION":2},"indices":82,"material":0,"mode":4},{"attributes":{"NORMAL":43,"POSITION":3},"indices":83,"material":0,"mode":4},{"attributes":{"NORMAL":44,"POSITION":4},"indices":84,"material":0,"mode":4},{"attributes":{"NORMAL":45,"POSITION":5},"indices":85,"material":0,"mode":4},{"attributes":{"NORMAL":46,"POSITION":6},"indices":86,"material":0,"mode":4},{"attributes":{"NORMAL":47,"POSITION":7},"indices":87,"material":0,"mode":4},{"attributes":{"NORMAL":48,"POSITION":8},"indices":88,"material":0,"mode":4},{"attributes":{"NORMAL":49,"POSITION":9},"indices":89,"material":0,"mode":4},{"attributes":{"NORMAL":50,"POSITION":10},"indices":90,"material":0,"mode":4},{"attributes":{"NORMAL":51,"POSITION":11},"indices":91,"material":0,"mode":4},{"attributes":{"NORMAL":52,"POSITION":12},"indices":92,"material":0,"mode":4},{"attributes":{"NORMAL":53,"POSITION":13},"indices":93,"material":0,"mode":4}]},{"name":"R","primitives":[{"attributes":{"NORMAL":54,"POSITION":14},"indices":94,"material":0,"mode":4},{"attributes":{"NORMAL":55,"POSITION":15},"indices":95,"material":0,"mode":4},{"attributes":{"NORMAL":56,"POSITION":16},"indices":96,"material":0,"mode":4},{"attributes":{"NORMAL":57,"POSITION":17},"indices":97,"material":0,"mode":4},{"attributes":{"NORMAL":58,"POSITION":18},"indices":98,"material":0,"mode":4},{"attributes":{"NORMAL":59,"POSITION":19},"indices":99,"material":0,"mode":4},{"attributes":{"NORMAL":60,"POSITION":20},"indices":100,"material":0,"mode":4},{"attributes":{"NORMAL":61,"POSITION":21},"indices":101,"material":0,"mode":4},{"attributes":{"NORMAL":62,"POSITION":22},"indices":102,"material":0,"mode":4},{"attributes":{"NORMAL":63,"POSITION":23},"indices":103,"material":0,"mode":4},{"attributes":{"NORMAL":64,"POSITION":24},"indices":104,"material":0,"mode":4},{"attributes":{"NORMAL":65,"POSITION":25},"indices":105,"material":0,"mode":4},{"attributes":{"NORMAL":66,"POSITION":26},"indices":106,"material":0,"mode":4},{"attributes":{"NORMAL":67,"POSITION":27},"indices":107,"material":0,"mode":4},{"attributes":{"NORMAL":68,"POSITION":28},"indices":108,"material":0,"mode":4},{"attributes":{"NORMAL":69,"POSITION":29},"indices":109,"material":0,"mode":4},{"attributes":{"NORMAL":70,"POSITION":30},"indices":110,"material":0,"mode":4},{"attributes":{"NORMAL":71,"POSITION":31},"indices":111,"material":0,"mode":4},{"attributes":{"NORMAL":72,"POSITION":32},"indices":112,"material":0,"mode":4},{"attributes":{"NORMAL":73,"POSITION":33},"indices":113,"material":0,"mode":4},{"attributes":{"NORMAL":74,"POSITION":34},"indices":114,"material":0,"mode":4},{"attributes":{"NORMAL":75,"POSITION":35},"indices":115,"material":0,"mode":4},{"attributes":{"NORMAL":76,"POSITION":36},"indices":116,"material":0,"mode":4},{"attributes":{"NORMAL":77,"POSITION":37},"indices":117,"material":0,"mode":4},{"attributes":{"NORMAL":78,"POSITION":38},"indices":118,"material":0,"mode":4},{"attributes":{"NORMAL":79,"POSITION":39},"indices":119,"material":0,"mode":4}]}],"nodes":[{"children":[1,2],"name":"Unnamed"},{"translation":[-0.006,0.0,0.012],"mesh":0,"name":"L"},{"translation":[-0.006,0.0,0.012],"mesh":1,"name":"R"}],"scene":0,"scenes":[{"nodes":[0]}]}