<svg width="100" xmlns="http://www.w3.org/2000/svg" height="100" fill="none"><defs><clipPath id="a" class="frame-clip frame-clip-def"><rect rx="0" ry="0" width="100" height="100"/></clipPath></defs><g clip-path="url(#a)"><g class="fills"><rect rx="0" ry="0" width="100" height="100" class="frame-background"/></g><g class="frame-children"><g class="fills"><rect rx="0" ry="0" x="13" y="4" width="81" height="93" class="frame-background"/></g><g style="fill: rgb(0, 0, 0);" class="frame-children"><rect rx="11.667" ry="11.667" x="13" y="4" width="23.334" height="92.852" style="display: inline; stroke: none; stroke-width: 0.378638; stroke-linejoin: bevel; fill: rgb(143, 96, 200); fill-opacity: 1;" class="fills"/><g mask="url(#c)" clip-path="url(#b)"><defs><clipPath id="b" class="mask-clip-path"><polyline points="13,4 36.33374551758254,4 36.33374551758254,96.85160467632932 13,96.85160467632932"/></clipPath><filter id="d"><feFlood flood-color="#fff" result="FloodResult"/><feComposite in="FloodResult" in2="SourceGraphic" operator="in" result="comp"/></filter><mask width="23.334" maskUnits="userSpaceOnUse" height="92.852" class="mask-shape" x="13" id="c" data-old-y="4" data-old-width="23.334" data-old-x="13" y="4" data-old-height="92.852"><g filter="url(#d)"><rect rx="11.667" ry="11.667" x="13" y="4" width="23.334" height="92.852" style="display: inline; stroke: none; stroke-width: 0.378638; stroke-linejoin: bevel; fill: rgb(163, 117, 218); fill-opacity: 1;" class="fills"/></g></mask></defs><defs><filter id="e" x="-.771" y="-.642" width="2.543" height="2.497" filterUnits="objectBoundingBox" color-interpolation-filters="sRGB"><feFlood flood-opacity="0" result="BackgroundImageFix"/><feColorMatrix in="SourceAlpha" values="0 0 0 0 0 0 0 0 0 0 0 0 0 0 0 0 0 0 127 0"/><feOffset dy="2"/><feGaussianBlur stdDeviation=".5"/><feColorMatrix values="0 0 0 0 0.11764705882352941 0 0 0 0 0.11764705882352941 0 0 0 0 0.1803921568627451 0 0 0 0.2 0"/><feBlend in2="BackgroundImageFix" result="filter_420f6e15-724f-806e-8005-3a0e83d83d96"/><feBlend in="SourceGraphic" in2="filter_420f6e15-724f-806e-8005-3a0e83d83d96" result="shape"/></filter></defs><path d="M24.667 3.999C18.203 3.999 13 9.242 13 15.754v3.216c.463-.104.931-.197 1.394-.266a16.154 16.154 0 0 1 3.917-.117c1.449.126 3.135.433 4.739.876a25.64 25.64 0 0 1 4.449 1.673c1.321.649 2.437 1.368 3.512 2.405 1.076 1.037 2.11 2.392 2.856 3.575.745 1.183 1.202 2.193 1.688 3.256.254.556.516 1.113.778 1.678V15.754c0-6.512-5.203-11.755-11.666-11.755Z" filter="url(#e)" style="display: inline; stroke: none; stroke-width: 0.378638; stroke-linejoin: bevel; fill: rgb(163, 117, 218); fill-opacity: 1;" class="fills"/></g><path d="M82.733 4.762a11.593 11.593 0 0 0-9.145 3.965l-30.09 34.234c-4.285 4.875-3.839 12.276 1 16.593l.001.001L73.29 92.944a11.581 11.581 0 0 0 16.459 1.164c4.879-4.27 5.395-11.666 1.156-16.582L67.818 50.752l23.239-26.44c4.285-4.875 3.839-12.275-1-16.592a11.584 11.584 0 0 0-7.324-2.958Z" style="stroke: none; stroke-width: 0.378638; stroke-linejoin: bevel; fill: rgb(143, 96, 200); fill-opacity: 1;" class="fills"/><g mask="url(#g)" clip-path="url(#f)"><defs><clipPath id="f" class="mask-clip-path"><polyline points="40.5553635946992,4.754617898110041 94,4.754617898110041 94,97 40.5553635946992,97"/></clipPath><filter id="h"><feFlood flood-color="#fff" result="FloodResult"/><feComposite in="FloodResult" in2="SourceGraphic" operator="in" result="comp"/></filter><mask width="53.445" maskUnits="userSpaceOnUse" height="92.245" class="mask-shape" x="40.555" id="g" data-old-y="4.755" data-old-width="53.445" data-old-x="40.555" y="4.755" data-old-height="92.245"><g filter="url(#h)"><path d="M82.733 4.762a11.593 11.593 0 0 0-9.145 3.965l-30.09 34.234c-4.285 4.875-3.839 12.276 1 16.593l.001.001L73.29 92.944a11.581 11.581 0 0 0 16.459 1.164c4.879-4.27 5.395-11.666 1.156-16.582L67.818 50.752l23.239-26.44c4.285-4.875 3.839-12.275-1-16.592a11.584 11.584 0 0 0-7.324-2.958Z" style="stroke: none; stroke-width: 0.378638; stroke-linejoin: bevel; fill: rgb(203, 166, 247);" class="fills"/></g></mask></defs><defs><filter id="i" x="-.337" y="-.254" width="1.674" height="1.594" filterUnits="objectBoundingBox" color-interpolation-filters="sRGB"><feFlood flood-opacity="0" result="BackgroundImageFix"/><feColorMatrix in="SourceAlpha" values="0 0 0 0 0 0 0 0 0 0 0 0 0 0 0 0 0 0 127 0"/><feOffset dy="2"/><feGaussianBlur stdDeviation=".5"/><feColorMatrix values="0 0 0 0 0.11764705882352941 0 0 0 0 0.11764705882352941 0 0 0 0 0.1803921568627451 0 0 0 0.2 0"/><feBlend in2="BackgroundImageFix" result="filter_420f6e15-724f-806e-8005-3a0ecaa66bc8"/><feBlend in="SourceGraphic" in2="filter_420f6e15-724f-806e-8005-3a0ecaa66bc8" result="shape"/></filter></defs><path d="M82.733 4.762a11.593 11.593 0 0 0-9.145 3.965l-30.09 34.234c-4.285 4.875-3.839 12.276 1 16.593l.001.001 13.746 15.94a27.989 27.989 0 0 1 3.171-16.82c.029-.057.061-.13.09-.185.333-.637.629-1.103.923-1.511a27.728 27.728 0 0 1 5.389-6.227l23.239-26.44c4.285-4.875 3.839-12.275-1-16.592a11.584 11.584 0 0 0-7.324-2.958Z" filter="url(#i)" style="display: inline; stroke: none; stroke-width: 0.378638; stroke-linejoin: bevel; fill: rgb(163, 117, 218); fill-opacity: 1;" class="fills"/></g></g></g></g></svg>